<svg xmlns="http://www.w3.org/2000/svg" viewBox="0 0 512 512" fill="none">
  <defs>
    <linearGradient id="coffeeGradient" x1="0%" y1="0%" x2="100%" y2="100%">
      <stop offset="0%" style="stop-color:#8B4513;stop-opacity:1" />
      <stop offset="100%" style="stop-color:#D2691E;stop-opacity:1" />
    </linearGradient>
    <linearGradient id="mysticGradient" x1="0%" y1="0%" x2="100%" y2="100%">
      <stop offset="0%" style="stop-color:#4A5568;stop-opacity:1" />
      <stop offset="100%" style="stop-color:#2D3748;stop-opacity:1" />
    </linearGradient>
  </defs>
  
  <!-- Background circle -->
  <circle cx="256" cy="256" r="240" fill="url(#mysticGradient)" stroke="#8B4513" stroke-width="8"/>
  
  <!-- Coffee cup -->
  <path d="M160 200 L160 360 Q160 380 180 380 L332 380 Q352 380 352 360 L352 200 Z" fill="url(#coffeeGradient)"/>
  <path d="M332 200 L332 360 Q332 380 352 380 L352 200 Z" fill="url(#coffeeGradient)" opacity="0.7"/>
  
  <!-- Cup handle -->
  <path d="M352 240 Q380 240 380 260 Q380 280 352 280" stroke="#8B4513" stroke-width="12" fill="none"/>
  
  <!-- Coffee steam -->
  <path d="M200 180 Q220 160 240 180 Q260 160 280 180 Q300 160 320 180" stroke="#8B4513" stroke-width="4" fill="none" opacity="0.6"/>
  
  <!-- Mystical symbols -->
  <circle cx="200" cy="120" r="8" fill="#FFD700"/>
  <circle cx="312" cy="120" r="8" fill="#FFD700"/>
  <circle cx="256" cy="100" r="6" fill="#FFD700"/>
  
  <!-- Coffee beans pattern -->
  <ellipse cx="220" cy="280" rx="8" ry="12" fill="#8B4513" opacity="0.8"/>
  <ellipse cx="280" cy="300" rx="6" ry="10" fill="#8B4513" opacity="0.6"/>
  <ellipse cx="240" cy="320" rx="7" ry="11" fill="#8B4513" opacity="0.7"/>
</svg>
